%FSLAX25Y25*%
%MOIN*%
G70*
G01*
G75*
G04 Layer_Color=8388736*
%ADD10R,0.03600X0.03000*%
%ADD11R,0.03543X0.02559*%
%ADD12R,0.07874X0.11024*%
%ADD13R,0.06000X0.05000*%
%ADD14R,0.03000X0.03600*%
%ADD15R,0.03150X0.00906*%
%ADD16R,0.00906X0.03150*%
%ADD17R,0.03937X0.07874*%
%ADD18C,0.01000*%
%ADD19C,0.02000*%
%ADD20C,0.01500*%
%ADD21C,0.01700*%
%ADD22C,0.01900*%
%ADD23R,0.15156X0.09649*%
%ADD24R,0.15310X0.02394*%
%ADD25R,0.06525X0.02707*%
%ADD26R,0.06323X0.02939*%
%ADD27R,0.06830X0.04197*%
%ADD28R,0.19009X0.03190*%
%ADD29R,0.08936X0.09999*%
%ADD30R,0.08242X0.15824*%
%ADD31R,0.08028X0.08465*%
%ADD32R,0.08515X0.08961*%
%ADD33C,0.02300*%
%ADD34C,0.01800*%
%ADD35R,0.11024X0.07874*%
%ADD36C,0.00984*%
%ADD37C,0.00787*%
%ADD38C,0.00700*%
%ADD39C,0.01200*%
%ADD40C,0.00400*%
%ADD41R,0.01672X0.03953*%
%ADD42R,0.07665X0.08194*%
%ADD43R,0.08822X0.08756*%
%ADD44R,0.04400X0.03800*%
%ADD45R,0.04343X0.03359*%
%ADD46R,0.08674X0.11824*%
%ADD47R,0.06800X0.05800*%
%ADD48R,0.03800X0.04400*%
%ADD49R,0.03950X0.01706*%
%ADD50R,0.01706X0.03950*%
%ADD51R,0.04737X0.08674*%
%ADD52C,0.02700*%
%ADD53C,0.02200*%
%ADD54C,0.02600*%
D41*
X348060Y327432D02*
D03*
X349998Y309716D02*
D03*
X348007Y309715D02*
D03*
D42*
X338829Y346957D02*
D03*
D43*
X360949Y347138D02*
D03*
D44*
X308177Y298038D02*
D03*
X313444Y298067D02*
D03*
X377779Y332238D02*
D03*
X383046Y332267D02*
D03*
X377438Y325125D02*
D03*
X382705Y325154D02*
D03*
X377435Y318798D02*
D03*
X382702Y318827D02*
D03*
X351346Y343802D02*
D03*
X346079Y343774D02*
D03*
X351189Y337842D02*
D03*
X345922Y337813D02*
D03*
X308353Y303889D02*
D03*
X313620Y303918D02*
D03*
D45*
X321385Y304972D02*
D03*
Y301232D02*
D03*
Y297492D02*
D03*
X330834D02*
D03*
Y301232D02*
D03*
Y304972D02*
D03*
D46*
X395023Y341288D02*
D03*
X395032Y323538D02*
D03*
X394949Y305815D02*
D03*
X305623Y306056D02*
D03*
X305614Y323806D02*
D03*
X305697Y341529D02*
D03*
D47*
X339535Y347141D02*
D03*
X360557Y347063D02*
D03*
D48*
X315872Y343776D02*
D03*
X315901Y338509D02*
D03*
X321934Y343776D02*
D03*
X321963Y338509D02*
D03*
X327776Y343776D02*
D03*
X327804Y338509D02*
D03*
X315791Y331972D02*
D03*
X315819Y326706D02*
D03*
X321442Y331911D02*
D03*
X321470Y326644D02*
D03*
X327154Y331911D02*
D03*
X327183Y326644D02*
D03*
X315206Y317285D02*
D03*
X315234Y312018D02*
D03*
X321205Y317285D02*
D03*
X321234Y312018D02*
D03*
X327877Y312247D02*
D03*
X327849Y317514D02*
D03*
X383649Y306656D02*
D03*
X383621Y311923D02*
D03*
X370825Y307048D02*
D03*
X370797Y312314D02*
D03*
X378207Y311844D02*
D03*
X378236Y306578D02*
D03*
X369584Y345068D02*
D03*
X369613Y339801D02*
D03*
X375618Y345011D02*
D03*
X375646Y339744D02*
D03*
X381538Y345011D02*
D03*
X381566Y339744D02*
D03*
D49*
X355928Y325483D02*
D03*
Y323514D02*
D03*
Y321546D02*
D03*
Y319577D02*
D03*
Y317608D02*
D03*
Y315640D02*
D03*
Y313671D02*
D03*
Y311703D02*
D03*
X342149D02*
D03*
Y313671D02*
D03*
Y315640D02*
D03*
Y317608D02*
D03*
Y319577D02*
D03*
Y321546D02*
D03*
Y323514D02*
D03*
Y325483D02*
D03*
D50*
X351991Y309735D02*
D03*
X346086D02*
D03*
Y327451D02*
D03*
X350023D02*
D03*
X351991D02*
D03*
D51*
X341423Y298086D02*
D03*
X347349Y298124D02*
D03*
X353286Y298086D02*
D03*
X359245Y298120D02*
D03*
D52*
X359987Y298085D02*
D03*
X340621Y298033D02*
D03*
X317745Y301294D02*
D03*
X304305Y297388D02*
D03*
X308184Y309821D02*
D03*
X351551Y322749D02*
D03*
X346863Y322637D02*
D03*
X346930Y314494D02*
D03*
X351574Y314539D02*
D03*
X351596Y318599D02*
D03*
X346908Y318666D02*
D03*
X302914Y327737D02*
D03*
X308069Y327721D02*
D03*
X302998Y319940D02*
D03*
X307850Y320071D02*
D03*
X305446Y323918D02*
D03*
X392653Y327501D02*
D03*
X397461Y327545D02*
D03*
X395166Y323695D02*
D03*
X392696Y319895D02*
D03*
X397417Y320114D02*
D03*
X392503Y345468D02*
D03*
X397503Y345507D02*
D03*
X395100Y341360D02*
D03*
X392697Y337174D02*
D03*
X397503Y337251D02*
D03*
X392309Y309889D02*
D03*
X397348Y309850D02*
D03*
X394867Y306323D02*
D03*
X392465Y301866D02*
D03*
X397464D02*
D03*
X371857Y300625D02*
D03*
Y295935D02*
D03*
X368152Y298421D02*
D03*
X364166Y300437D02*
D03*
X364260Y295560D02*
D03*
X303445Y309798D02*
D03*
X303005Y345654D02*
D03*
X307937D02*
D03*
X305365Y341109D02*
D03*
X302864Y337233D02*
D03*
X308219D02*
D03*
D53*
X336298Y321551D02*
D03*
X335213Y307299D02*
D03*
X318163Y309567D02*
D03*
X364058Y332030D02*
D03*
X383189Y335960D02*
D03*
X348847Y320658D02*
D03*
X349004Y316467D02*
D03*
X337612Y311715D02*
D03*
X324562Y317430D02*
D03*
X318185Y317304D02*
D03*
X346773Y332041D02*
D03*
X351306Y332086D02*
D03*
X383405Y328605D02*
D03*
X383430Y315602D02*
D03*
X383279Y322164D02*
D03*
D54*
X365016Y309357D02*
D03*
M02*
