M48
;Layer_Color=9474304
;FILE_FORMAT=2:5
INCH,LZ
;TYPE=PLATED
T1F00S00C0.01000
T2F00S00C0.01500
%
T01
X0318163Y0309567
X0335213Y0307299
X0337612Y0311715
X0365016Y0309357
X0349004Y0316467
X0348847Y0320658
X0336298Y0321551
X0324562Y031743
X0318185Y0317304
X0346773Y0332041
X0351306Y0332086
X0364058Y033203
X0383405Y0328605
X0383279Y0322164
X038343Y0315602
X0383189Y033596
T02
X0317745Y0301294
X0340621Y0298033
X0359987Y0298085
X0364166Y0300437
X036426Y029556
X0368152Y0298421
X0371857Y0300625
Y0295935
X0392465Y0301866
X0397464
X0394867Y0306323
X0397348Y030985
X0392309Y0309889
X0308184Y0309821
X0303445Y0309798
X0304305Y0297388
X0302998Y031994
X030785Y0320071
X0305446Y0323918
X0302914Y0327737
X0308069Y0327721
X0308219Y0337233
X0302864
X0305365Y0341109
X0303005Y0345654
X0307937
X0346863Y0322637
X0346908Y0318666
X034693Y0314494
X0351574Y0314539
X0351596Y0318599
X0351551Y0322749
X0392696Y0319895
X0397417Y0320114
X0395166Y0323695
X0397461Y0327545
X0392653Y0327501
X0392697Y0337174
X0397503Y0337251
X03951Y034136
X0397503Y0345507
X0392503Y0345468
M30
