%FSLAX25Y25*%
%MOIN*%
G70*
G01*
G75*
%ADD10C,0.00500*%
%ADD11C,0.00667*%
D10*
X359237Y298085D02*
X360737D01*
X359987Y297335D02*
Y298835D01*
X339872Y298033D02*
X341371D01*
X340621Y297283D02*
Y298783D01*
X316995Y301294D02*
X318495D01*
X317745Y300544D02*
Y302044D01*
X303555Y297388D02*
X305055D01*
X304305Y296638D02*
Y298138D01*
X307434Y309821D02*
X308934D01*
X308184Y309071D02*
Y310571D01*
X335798Y321551D02*
X336798D01*
X336298Y321051D02*
Y322051D01*
X364515Y309357D02*
X365515D01*
X365016Y308857D02*
Y309857D01*
X334713Y307299D02*
X335713D01*
X335213Y306799D02*
Y307799D01*
X317663Y309567D02*
X318663D01*
X318163Y309067D02*
Y310067D01*
X363558Y332030D02*
X364558D01*
X364058Y331530D02*
Y332530D01*
X382688Y335960D02*
X383688D01*
X383189Y335460D02*
Y336460D01*
X348347Y320658D02*
X349347D01*
X348847Y320158D02*
Y321158D01*
X348504Y316467D02*
X349504D01*
X349004Y315967D02*
Y316967D01*
X337112Y311715D02*
X338112D01*
X337612Y311214D02*
Y312214D01*
X324062Y317430D02*
X325062D01*
X324562Y316930D02*
Y317930D01*
X317685Y317304D02*
X318685D01*
X318185Y316804D02*
Y317804D01*
X346273Y332041D02*
X347273D01*
X346773Y331541D02*
Y332541D01*
X350806Y332086D02*
X351806D01*
X351306Y331586D02*
Y332586D01*
X382905Y328605D02*
X383905D01*
X383405Y328105D02*
Y329105D01*
X382930Y315602D02*
X383930D01*
X383430Y315102D02*
Y316102D01*
X382779Y322164D02*
X383779D01*
X383279Y321664D02*
Y322664D01*
X350801Y322749D02*
X352301D01*
X351551Y321999D02*
Y323499D01*
X346113Y322637D02*
X347613D01*
X346863Y321887D02*
Y323387D01*
X346180Y314494D02*
X347680D01*
X346930Y313744D02*
Y315244D01*
X350824Y314539D02*
X352324D01*
X351574Y313789D02*
Y315289D01*
X350846Y318599D02*
X352346D01*
X351596Y317849D02*
Y319349D01*
X346158Y318666D02*
X347658D01*
X346908Y317916D02*
Y319416D01*
X302164Y327737D02*
X303664D01*
X302914Y326987D02*
Y328487D01*
X307319Y327721D02*
X308819D01*
X308069Y326971D02*
Y328471D01*
X302248Y319940D02*
X303748D01*
X302998Y319190D02*
Y320690D01*
X307100Y320071D02*
X308600D01*
X307850Y319321D02*
Y320821D01*
X304696Y323918D02*
X306196D01*
X305446Y323168D02*
Y324668D01*
X391903Y327501D02*
X393403D01*
X392653Y326751D02*
Y328251D01*
X396711Y327545D02*
X398211D01*
X397461Y326795D02*
Y328295D01*
X394416Y323695D02*
X395916D01*
X395166Y322945D02*
Y324445D01*
X391946Y319895D02*
X393446D01*
X392696Y319145D02*
Y320645D01*
X396668Y320114D02*
X398167D01*
X397417Y319364D02*
Y320864D01*
X391753Y345468D02*
X393253D01*
X392503Y344718D02*
Y346218D01*
X396753Y345507D02*
X398253D01*
X397503Y344757D02*
Y346257D01*
X394350Y341360D02*
X395850D01*
X395100Y340610D02*
Y342110D01*
X391947Y337174D02*
X393447D01*
X392697Y336424D02*
Y337924D01*
X396753Y337251D02*
X398253D01*
X397503Y336502D02*
Y338001D01*
X391560Y309889D02*
X393059D01*
X392309Y309139D02*
Y310639D01*
X396598Y309850D02*
X398098D01*
X397348Y309100D02*
Y310600D01*
X394117Y306323D02*
X395618D01*
X394867Y305573D02*
Y307073D01*
X391715Y301866D02*
X393215D01*
X392465Y301116D02*
Y302616D01*
X396714Y301866D02*
X398214D01*
X397464Y301116D02*
Y302616D01*
X371107Y300625D02*
X372607D01*
X371857Y299875D02*
Y301375D01*
X371107Y295935D02*
X372607D01*
X371857Y295185D02*
Y296685D01*
X367402Y298421D02*
X368902D01*
X368152Y297671D02*
Y299170D01*
X363416Y300437D02*
X364916D01*
X364166Y299687D02*
Y301187D01*
X363510Y295560D02*
X365010D01*
X364260Y294810D02*
Y296310D01*
X302695Y309798D02*
X304195D01*
X303445Y309048D02*
Y310548D01*
X302255Y345654D02*
X303755D01*
X303005Y344904D02*
Y346404D01*
X307187Y345654D02*
X308687D01*
X307937Y344904D02*
Y346404D01*
X304615Y341109D02*
X306115D01*
X305365Y340359D02*
Y341859D01*
X302114Y337233D02*
X303614D01*
X302864Y336483D02*
Y337983D01*
X307469Y337233D02*
X308969D01*
X308219Y336483D02*
Y337983D01*
M02*
